<svg width="140" height="100" viewBox="0 0 140 100" fill="none" xmlns="http://www.w3.org/2000/svg">
<path fill-rule="evenodd" clip-rule="evenodd" d="M76.4808 18L85.4534 25.4881V21.159H93.3492V31.5722L104.475 40.8154H97.656V65.8537H70.2187C70.8168 67.2578 72.1054 69.0742 73.7293 69.1298C101.896 68.3825 116.082 69.0353 129 82H98.4934C95.8959 78.4319 93.4079 76.3117 82.5821 78.0219H75.1649C59.8518 72.5229 45.208 71.1232 47.1706 82H32.5753C33.1772 76.6719 35.2176 74.237 40.83 70.5338C39.1998 64.1406 37.0932 61.1006 32.5753 56.0256C32.1966 59.2131 32.2271 61.1807 33.5324 65.6197C28.6826 66.0695 26.7586 63.9396 23.4831 56.0256C23.2325 59.2543 23.2732 60.9097 23.4831 63.7477C18.9431 62.2241 17.0151 60.7597 17.2622 54.5046C15.6686 57.7102 14.4437 58.7881 11.8787 59.8867C9.94432 50.8493 10.5479 46.6492 20.4923 39.9963C21.254 32.6912 23.2276 31.8297 27.6703 30.7532C28.2042 33.0784 28.1476 34.7827 27.6703 38.2413C27.9347 37.9988 28.192 37.7613 28.443 37.5296C32.3169 33.9537 34.7128 31.7422 39.0355 33.2102C38.8972 36.4182 38.0584 37.798 35.4465 39.6453C43.9177 39.8666 46.5817 41.1437 47.1706 45.7294C37.5923 44.9323 35.7759 46.2975 36.2839 50.6435C42.2268 55.7863 45.1579 59.0135 47.8884 66.9068C50.0304 67.3428 51.2529 67.2509 53.5112 65.8537V40.8154H47.1706L76.4808 18ZM77.9403 46.4238H91.8157V59.8106H77.9403V46.4238Z" fill="#FFF3C6"/>
</svg>
