<svg width="140" height="140" viewBox="0 0 140 140" fill="none" xmlns="http://www.w3.org/2000/svg">
<rect width="140" height="140" rx="24" fill="url(#paint0_radial_69_4)"/>
<path fill-rule="evenodd" clip-rule="evenodd" d="M76.3709 38L85.1915 45.4881V41.159H92.9534V51.5722L103.891 60.8154H97.1873V85.8537H70.215C70.8029 87.2578 72.0697 89.0742 73.6661 89.1298C101.355 88.3825 115.301 89.0353 128 102H98.0105C95.457 98.4319 93.0112 96.3117 82.3688 98.0219H75.0774C60.0238 92.5229 45.6282 91.1232 47.5575 102H33.2096C33.8013 96.6719 35.8071 94.237 41.3244 90.5338C39.7218 84.1406 37.6509 81.1006 33.2096 76.0256C32.8373 79.2131 32.8673 81.1807 34.1505 85.6197C29.3829 86.0695 27.4915 83.9396 24.2715 76.0256C24.0252 79.2543 24.0652 80.9097 24.2715 83.7477C19.8085 82.2241 17.9131 80.7597 18.156 74.5046C16.5895 77.7102 15.3853 78.7881 12.8638 79.8867C10.9622 70.8493 11.5555 66.6492 21.3314 59.9963C22.0802 52.6912 24.0203 51.8297 28.3877 50.7532C28.9126 53.0784 28.8569 54.7827 28.3877 58.2413C28.6477 57.9988 28.9006 57.7613 29.1473 57.5296C32.9556 53.9537 35.3109 51.7422 39.5603 53.2102C39.4244 56.4182 38.5998 57.798 36.0321 59.6453C44.3598 59.8666 46.9786 61.1437 47.5575 65.7294C38.1416 64.9323 36.356 66.2975 36.8553 70.6435C42.6975 75.7863 45.5789 79.0135 48.2632 86.9068C50.3689 87.3428 51.5706 87.2509 53.7907 85.8537V60.8154H47.5575L76.3709 38ZM77.8057 66.4238H91.4459V79.8106H77.8057V66.4238Z" fill="#FFF3C6"/>
<defs>
<radialGradient id="paint0_radial_69_4" cx="0" cy="0" r="1" gradientUnits="userSpaceOnUse" gradientTransform="translate(51.75 48.75) rotate(-135.597) scale(101.829)">
<stop stop-color="#252D20"/>
<stop offset="1" stop-color="#151B12"/>
</radialGradient>
</defs>
</svg>
